Patient4_TMGait_0pt4_02_right_31_GRF.mot
version=1
nRows=78
nColumns=19
inDegrees=no
endheader
time	F1x	F1y	F1z	M1x	M1y	M1z	F2x	F2y	F2z	M2x	M2y	M2z	EC1x	EC1y	EC1z	EC2x	EC2y	EC2z
40.88	18.8118	781.1132	42.4471	-266.8943	-45.7072	858.37	0.69372	-23.3333	3.631	-4.8741	-2.0872	-35.1125	-0.0592	0.0182	-0.0073	-0.0462	0.0165	0.9585
40.8934	13.2405	767.8326	48.638	-262.4801	-51.4605	840.661	0.39279	-13.4688	2.2667	-2.4689	-1.2024	-20.9318	-0.0592	0.0182	-0.0073	-0.0462	0.0165	0.9585
40.9067	9.0305	755.1723	53.6105	-258.2254	-55.7885	823.2958	0.10882	-5.1198	1.1378	-0.4325	-0.48099	-8.9327	-0.0592	0.0182	-0.0073	-0.0462	0.0165	0.9585
40.9201	6.4104	744.4626	57.1633	-254.5771	-58.5236	807.8748	-0.14741	1.2582	0.2993	1.1246	0.049224	0.24154	-0.0592	0.0182	-0.0073	-0.0462	0.0165	0.9585
40.9334	5.2545	736.6708	59.3755	-251.8726	-59.7994	795.5443	-0.35061	5.6952	-0.26666	2.2099	0.40367	6.6292	-0.0592	0.0182	-0.0073	-0.0462	0.0165	0.9585
40.9468	5.2566	732.3553	60.5372	-250.3089	-59.9514	786.984	-0.49938	8.4718	-0.60081	2.892	0.61209	10.6327	-0.0592	0.0182	-0.0073	-0.0462	0.0165	0.9585
40.9601	6.0637	731.688	60.951	-249.9468	-59.3261	782.4275	-0.63158	9.9556	-0.76263	3.2582	0.72459	12.7921	-0.0592	0.0182	-0.0073	-0.0462	0.0165	0.9585
40.9735	7.337	734.4763	60.9119	-250.7132	-58.2572	781.6873	-0.7393	10.4889	-0.81061	3.3882	0.7797	13.5919	-0.0592	0.0182	-0.0073	-0.0462	0.0165	0.9585
40.9869	8.8198	740.2325	60.6536	-252.4261	-57.0037	784.2355	-0.85981	10.3753	-0.80114	3.3462	0.82169	13.4853	-0.0592	0.0182	-0.0073	-0.0462	0.0165	0.9585
41.0002	10.3573	748.2192	60.3528	-254.8179	-55.7516	789.2748	-0.99037	9.7853	-0.76707	3.1611	0.86595	12.722	-0.0592	0.0182	-0.0073	-0.0462	0.0165	0.9585
41.0136	11.8827	757.4892	60.14	-257.5539	-54.625	795.7934	-1.1494	8.8213	-0.73873	2.8432	0.93601	11.4653	-0.0592	0.0182	-0.0073	-0.0462	0.0165	0.9585
41.0269	13.4268	766.9494	60.0797	-260.2587	-53.6701	802.6123	-1.3216	7.5184	-0.72979	2.3876	1.0317	9.7862	-0.0592	0.0182	-0.0073	-0.0462	0.0165	0.9585
41.0403	15.0146	775.4462	60.1911	-262.5418	-52.8933	808.5115	-1.4691	5.8555	-0.74532	1.7791	1.1357	7.6775	-0.0592	0.0182	-0.0073	-0.0462	0.0165	0.9585
41.0536	16.7056	781.8223	60.4238	-264.0224	-52.2334	812.2681	-1.5544	3.8404	-0.77045	1.0174	1.2083	5.1715	-0.0592	0.0182	-0.0073	-0.0462	0.0165	0.9585
41.067	18.5184	785.0261	60.7119	-264.3612	-51.6212	812.7981	-1.454	1.5356	-0.77762	0.12742	1.1736	2.3394	-0.0592	0.0182	-0.0073	-0.0462	0.0165	0.9585
41.0804	20.4561	784.255	60.9765	-263.3041	-50.9796	809.2887	-1.0511	-0.83166	-0.72503	-0.80079	0.93592	-0.53359	-0.0592	0.0182	-0.0073	-0.0462	0.0165	0.9585
41.0937	22.5127	779.1167	61.1832	-260.7337	-50.2752	801.3644	-0.17663	-2.8234	-0.55832	-1.586	0.37036	-2.9313	-0.0592	0.0182	-0.0073	-0.0462	0.0165	0.9585
41.1071	24.6874	769.8015	61.3259	-256.7245	-49.501	789.2583	1.3505	-3.6587	-0.22686	-1.9116	-0.64975	-3.9259	-0.0592	0.0182	-0.0073	-0.0462	0.0165	0.9585
41.1204	27.0025	757.0455	61.4537	-251.5306	-48.704	773.7496	3.6827	-2.1755	0.3247	-1.3077	-2.2436	-2.1319	-0.0592	0.0182	-0.0073	-0.0462	0.0165	0.9585
41.1338	29.4473	741.946	61.6206	-245.5247	-47.9468	755.9996	6.9117	3.1757	1.1369	0.85444	-4.482	4.287	-0.0592	0.0182	-0.0073	-0.0462	0.0165	0.9585
41.1471	32.0208	725.6343	61.8606	-239.0924	-47.2735	737.2083	10.9471	14.3176	2.2223	5.3476	-7.3229	17.614	-0.0592	0.0182	-0.0073	-0.0462	0.0165	0.9585
41.1605	34.6499	708.8684	62.146	-232.4963	-46.6845	718.2119	15.4531	33.2873	3.5266	12.9935	-10.5403	40.2501	-0.0592	0.0182	-0.0073	-0.0462	0.0165	0.9585
41.1739	37.1664	691.6723	62.357	-225.7574	-46.1212	699.1269	19.6384	61.8341	4.8977	24.4962	-13.6219	74.2596	-0.0592	0.0182	-0.0073	-0.0462	0.0165	0.9585
41.1872	39.2954	673.2037	62.2601	-218.6173	-45.4435	679.2021	22.1427	100.7113	6.0283	40.1564	-15.654	120.51	-0.0592	0.0182	-0.0073	-0.0462	0.0165	0.9585
41.2006	40.6864	652.0017	61.5574	-210.6202	-44.4713	657.0709	21.194	148.916	6.3846	59.5568	-15.3215	177.7997	-0.0592	0.0182	-0.0073	-0.0462	0.0165	0.9585
41.2139	41.0275	626.489	59.9373	-201.2826	-42.9949	631.1982	15.9411	203.5925	5.4497	81.4842	-11.6856	242.8275	-0.0592	0.0182	-0.0073	-0.0462	0.0165	0.9585
41.2273	40.1298	595.6056	57.2178	-190.2992	-40.892	600.5147	7.0878	259.4566	2.9418	103.776	-4.7947	309.365	-0.0592	0.0182	-0.0073	-0.0462	0.0165	0.9585
41.2406	38.0525	559.3084	53.3945	-177.706	-38.1303	564.8593	-3.2037	311.2607	-1.0301	124.3147	4.3194	371.0156	-0.0592	0.0182	-0.0073	-0.0462	0.0165	0.9585
41.254	35.1003	518.6202	48.6992	-163.8831	-34.8196	525.0567	-13.3625	357.0763	-6.2325	142.2977	14.7292	425.3733	-0.0592	0.0182	-0.0073	-0.0462	0.0165	0.9585
41.2674	31.7074	475.0308	43.4521	-149.3515	-31.1141	482.3623	-22.3056	397.3387	-11.9875	157.9333	25.2553	472.8517	-0.0592	0.0182	-0.0073	-0.0462	0.0165	0.9585
41.2807	28.2241	429.7145	38.0059	-134.5066	-27.2222	437.7555	-29.5856	433.2632	-17.8202	171.7563	35.1399	514.8859	-0.0592	0.0182	-0.0073	-0.0462	0.0165	0.9585
41.2941	24.7699	383.4196	32.6026	-119.5796	-23.3249	391.8838	-35.0566	466.2295	-23.0895	184.3832	43.6147	553.0476	-0.0592	0.0182	-0.0073	-0.0462	0.0165	0.9585
41.3074	21.3	336.7361	27.4438	-104.7264	-19.6162	345.3126	-38.7189	497.6178	-27.6149	196.4043	50.4612	588.915	-0.0592	0.0182	-0.0073	-0.0462	0.0165	0.9585
41.3208	17.7104	290.3477	22.6623	-90.1115	-16.2526	298.7312	-40.6697	528.7788	-31.3824	208.3678	55.724	624.0324	-0.0592	0.0182	-0.0073	-0.0462	0.0165	0.9585
41.3341	13.8715	245.0656	18.3887	-75.9365	-13.4054	252.9974	-41.1309	560.6764	-34.7651	220.6288	59.911	659.5298	-0.0592	0.0182	-0.0073	-0.0462	0.0165	0.9585
41.3475	9.7241	201.8808	14.7009	-62.4678	-11.1874	209.158	-40.4862	593.6193	-38.1486	233.2626	63.6076	695.8092	-0.0592	0.0182	-0.0073	-0.0462	0.0165	0.9585
41.3609	5.3207	161.9218	11.6423	-50.0266	-9.6423	168.4142	-39.218	627.2356	-41.8782	246.0846	67.3773	732.4871	-0.0592	0.0182	-0.0073	-0.0462	0.0165	0.9585
41.3742	0.9058	126.2284	9.1883	-38.9226	-8.6841	131.8606	-37.7878	660.81	-46.0319	258.7898	71.4769	768.787	-0.0592	0.0182	-0.0073	-0.0462	0.0165	0.9585
41.3876	-3.1592	95.4894	7.2734	-29.3689	-8.1399	100.2356	-36.4452	693.4307	-50.4452	271.0202	75.8157	803.6909	-0.0592	0.0182	-0.0073	-0.0462	0.0165	0.9585
41.4009	-6.491	69.8848	5.7932	-21.4251	-7.7832	73.7562	-35.2955	723.9682	-54.8309	282.3468	80.1054	835.9457	-0.0592	0.0182	-0.0073	-0.0462	0.0165	0.9585
41.4143	-8.7642	49.1273	4.6283	-15.004	-7.3913	52.1521	-34.3364	751.1399	-58.9047	292.2837	84.0173	864.1283	-0.0592	0.0182	-0.0073	-0.0462	0.0165	0.9585
41.4276	-9.8014	32.7001	3.6562	-9.9413	-6.7852	34.9372	-33.4951	773.7398	-62.4863	300.3659	87.3164	886.9154	-0.0592	0.0182	-0.0073	-0.0462	0.0165	0.9585
41.441	-9.5535	20.0425	2.7839	-6.0591	-5.8623	21.5808	-32.7135	790.7636	-65.4432	306.2067	89.8329	903.2236	-0.0592	0.0182	-0.0073	-0.0462	0.0165	0.9585
41.4544	-8.2067	10.6526	1.9778	-3.1963	-4.6509	11.6065	-31.9101	801.4958	-67.7306	309.5359	91.4912	912.2853	-0.0592	0.0182	-0.0073	-0.0462	0.0165	0.9585
41.4677	-6.2603	4.1492	1.2667	-1.2291	-3.3401	4.648	-30.992	805.7132	-69.298	310.2815	92.2196	913.8843	-0.0592	0.0182	-0.0073	-0.0462	0.0165	0.9585
41.4811	-4.2572	0.095436	0.71393	-0.016079	-2.1629	0.28269	-29.862	803.7814	-70.1492	308.6123	92.0031	908.4582	-0.0592	0.0182	-0.0073	-0.0462	0.0165	0.9585
41.4944	-2.5059	-2.0666	0.3223	0.61908	-1.2216	-2.0562	-28.4394	796.7031	-70.2785	304.9539	90.8292	897.1492	-0.0592	0.0182	-0.0073	-0.0462	0.0165	0.9585
41.5078	-1.1294	-2.909	0.074442	0.85581	-0.53858	-2.9816	-26.6769	786.0296	-69.7534	299.9412	88.7777	881.6981	-0.0592	0.0182	-0.0073	-0.0462	0.0165	0.9585
41.5211	-0.15137	-2.9119	-0.065461	0.84304	-0.087302	-3.0065	-24.5479	773.6082	-68.668	294.3236	85.972	864.1536	-0.0592	0.0182	-0.0073	-0.0462	0.0165	0.9585
41.5345	0.48519	-2.4566	-0.13048	0.69546	0.18254	-2.5442	-22.0772	761.3432	-67.1842	288.8622	82.622	846.6376	-0.0592	0.0182	-0.0073	-0.0462	0.0165	0.9585
41.5479	0.8399	-1.808	-0.14978	0.49269	0.31985	-1.8685	-19.32	750.9573	-65.4486	284.2404	78.9307	831.0551	-0.0592	0.0182	-0.0073	-0.0462	0.0165	0.9585
41.5612	1.0002	-1.1331	-0.14851	0.28443	0.37434	-1.149	-16.3743	743.8007	-63.6343	280.9815	75.1361	818.9034	-0.0592	0.0182	-0.0073	-0.0462	0.0165	0.9585
41.5746	1.0364	-0.52854	-0.13636	0.09942	0.37795	-0.48136	-13.3517	740.6844	-61.8756	279.3874	71.4377	811.0892	-0.0592	0.0182	-0.0073	-0.0462	0.0165	0.9585
41.5879	0.99597	-0.040119	-0.1215	-0.049789	0.3528	0.087962	-10.3602	741.7832	-60.3034	279.5075	68.0184	807.8273	-0.0592	0.0182	-0.0073	-0.0462	0.0165	0.9585
41.6013	0.91666	0.31555	-0.098827	-0.1581	0.30572	0.52299	-7.5065	746.7047	-58.9875	281.1673	64.9953	808.7219	-0.0592	0.0182	-0.0073	-0.0462	0.0165	0.9585
41.6146	0.81291	0.53622	-0.065646	-0.22289	0.2366	0.81462	-4.86	754.5867	-57.9661	284.0108	62.4342	812.8655	-0.0592	0.0182	-0.0073	-0.0462	0.0165	0.9585
41.628	0.69018	0.59728	-0.019314	-0.23459	0.14605	0.91632	-2.4761	764.1994	-57.2164	287.5456	60.3282	818.9651	-0.0592	0.0182	-0.0073	-0.0462	0.0165	0.9585
41.6414	0.54349	0.47669	0.04918	-0.18071	0.024939	0.78245	-0.38388	774.0946	-56.6805	291.2026	58.619	825.5034	-0.0592	0.0182	-0.0073	-0.0462	0.0165	0.9585
41.6547	0.37126	0.12389	0.13367	-0.044544	-0.11951	0.34373	1.4311	782.7899	-56.2698	294.4056	57.1994	830.9309	-0.0592	0.0182	-0.0073	-0.0462	0.0165	0.9585
41.6681	0.18354	-0.53793	0.24019	0.19471	-0.2924	-0.48159	3.0065	788.9528	-55.8877	296.6397	55.9417	833.855	-0.0592	0.0182	-0.0073	-0.0462	0.0165	0.9585
41.6814	-0.0093	-1.5584	0.35081	0.54985	-0.47526	-1.7407	4.4087	791.6143	-55.4396	297.532	54.7139	833.2549	-0.0592	0.0182	-0.0073	-0.0462	0.0165	0.9585
41.6948	-0.17172	-2.9655	0.4619	1.0301	-0.65024	-3.455	5.7009	790.3413	-54.8596	296.9143	53.4164	828.6794	-0.0592	0.0182	-0.0073	-0.0462	0.0165	0.9585
41.7081	-0.2542	-4.7078	0.53387	1.6196	-0.75637	-5.5524	6.9537	785.2213	-54.1582	294.8165	52.026	820.2237	-0.0592	0.0182	-0.0073	-0.0462	0.0165	0.9585
41.7215	-0.18289	-6.6025	0.53945	2.2584	-0.72924	-7.8192	8.2374	776.8132	-53.4044	291.4503	50.579	808.4697	-0.0592	0.0182	-0.0073	-0.0462	0.0165	0.9585
41.7349	0.15706	-8.2819	0.41538	2.8216	-0.45708	-9.8249	9.6127	766.0934	-52.7175	287.1869	49.1678	794.4261	-0.0592	0.0182	-0.0073	-0.0462	0.0165	0.9585
41.7482	0.89118	-9.138	0.1018	3.0997	0.17731	-10.8458	11.1517	754.3129	-52.2236	282.5042	47.8895	779.3647	-0.0592	0.0182	-0.0073	-0.0462	0.0165	0.9585
41.7616	2.1835	-8.2406	-0.48141	2.7714	1.32	-9.795	12.9054	742.753	-52.0307	277.8916	46.8322	764.5821	-0.0592	0.0182	-0.0073	-0.0462	0.0165	0.9585
41.7749	4.1698	-4.3119	-1.4047	1.3974	3.0999	-5.169	14.886	732.4223	-52.1852	273.7394	46.037	751.0982	-0.0592	0.0182	-0.0073	-0.0462	0.0165	0.9585
41.7883	6.9451	4.2009	-2.7203	-1.5588	5.608	4.8647	17.0509	723.8388	-52.6677	270.2496	45.5025	739.4571	-0.0592	0.0182	-0.0073	-0.0462	0.0165	0.9585
41.8016	10.46	19.0082	-4.423	-6.6828	8.8177	22.3203	19.3013	716.8422	-53.3828	267.3657	45.1754	729.5455	-0.0592	0.0182	-0.0073	-0.0462	0.0165	0.9585
41.815	14.4286	41.6469	-6.3983	-14.4946	12.4873	49.0033	21.4646	710.5291	-54.1798	264.7533	44.9726	720.5265	-0.0592	0.0182	-0.0073	-0.0462	0.0165	0.9585
41.8284	18.2098	72.9024	-8.3718	-25.2544	16.0569	85.8382	23.3128	703.4207	-54.8544	261.8577	44.7794	711.009	-0.0592	0.0182	-0.0073	-0.0462	0.0165	0.9585
41.8417	20.6393	111.9904	-9.8156	-38.6798	18.4952	131.9074	24.6227	693.7059	-55.1783	257.9967	44.4621	699.2639	-0.0592	0.0182	-0.0073	-0.0462	0.0165	0.9585
41.8551	20.2304	155.7085	-9.9164	-53.6406	18.3346	183.4667	25.1744	679.6331	-54.9157	252.5151	43.8774	683.6103	-0.0592	0.0182	-0.0073	-0.0462	0.0165	0.9585
41.8684	16.5888	198.8411	-7.8851	-68.2784	14.5497	234.4992	24.8495	660.087	-53.9017	245.0012	42.917	662.9641	-0.0592	0.0182	-0.0073	-0.0462	0.0165	0.9585
41.8818	10.8618	236.3969	-3.71	-80.877	7.587	279.0763	23.6978	635.0796	-52.1255	235.467	41.5665	637.3047	-0.0592	0.0182	-0.0073	-0.0462	0.0165	0.9585
41.8951	4.5021	267.3843	1.7631	-91.1168	-1.0962	315.8735	21.9366	605.7598	-49.7762	224.3439	39.9334	607.6776	-0.0592	0.0182	-0.0073	-0.0462	0.0165	0.9585
41.9085	-1.4802	293.2272	7.9035	-99.5236	-10.3954	346.4864	19.9355	573.7903	-47.1505	212.2606	38.1609	575.5927	-0.0592	0.0182	-0.0073	-0.0462	0.0165	0.9585
